<svg width="120" height="120" viewBox="0 0 120 120" fill="none" xmlns="http://www.w3.org/2000/svg">
<path d="M0 15C0 6.71573 6.71573 0 15 0H105C113.284 0 120 6.71573 120 15V105C120 113.284 113.284 120 105 120H15C6.71573 120 0 113.284 0 105V15Z" fill="black"/>
<g filter="url(#filter0_d_0_1)">
<mask id="path-2-outside-1_0_1" maskUnits="userSpaceOnUse" x="12" y="45" width="97" height="30" fill="black">
<rect fill="white" x="12" y="45" width="97" height="30"/>
<path d="M24.375 66.2539C24.375 65.4518 24.6471 64.7786 25.1914 64.2344C25.7643 63.6615 26.4518 63.375 27.2539 63.375H33.8281L32.7109 60.1953C32.2526 59.0208 31.7943 57.918 31.3359 56.8867C30.9062 55.8268 30.4049 54.8672 29.832 54.0078C29.3164 53.1484 28.7292 52.6901 28.0703 52.6328C27.3828 52.6901 26.7669 53.1484 26.2227 54.0078C25.6784 54.8672 25.1771 55.8268 24.7188 56.8867C24.2891 57.918 23.8451 59.0208 23.3867 60.1953L19.3047 71.3672C19.0182 71.9688 18.6458 72.4701 18.1875 72.8711C17.7578 73.2435 17.099 73.4297 16.2109 73.4297C15.3802 73.4297 14.6927 73.1432 14.1484 72.5703C13.6328 71.9974 13.4036 71.3099 13.4609 70.5078C13.4896 70.1354 13.5755 69.7917 13.7188 69.4766L18.4453 57.2734C19.763 54.0651 21.0807 51.4727 22.3984 49.4961C23.6875 47.5482 25.5781 46.5599 28.0703 46.5312C30.5339 46.5599 32.4102 47.5482 33.6992 49.4961C35.0169 51.4154 36.3346 54.0078 37.6523 57.2734L42.3789 69.4766C42.5221 69.7917 42.6081 70.1354 42.6367 70.5078C42.694 71.3099 42.4505 71.9974 41.9062 72.5703C41.3906 73.1432 40.7174 73.4297 39.8867 73.4297C38.9414 73.4297 38.2396 73.2435 37.7812 72.8711C37.3516 72.4701 36.9935 71.9688 36.707 71.3672L35.8906 69.1328H27.2539C26.4518 69.1328 25.7786 68.8464 25.2344 68.2734C24.6615 67.7292 24.375 67.056 24.375 66.2539ZM65.582 47.5625C67.5872 47.6771 69.2344 48.4505 70.5234 49.8828C71.8125 51.2865 72.7435 52.8906 73.3164 54.6953C73.8893 56.5 74.1758 58.3477 74.1758 60.2383C74.1758 62.1289 73.8893 63.9766 73.3164 65.7812C72.7721 67.5859 71.8411 69.2044 70.5234 70.6367C69.2344 72.0404 67.5872 72.7995 65.582 72.9141H49.7695C48.9961 72.8854 48.3372 72.6133 47.793 72.0977C47.2773 71.5534 47.0052 70.8945 46.9766 70.1211V59.4648C47.0052 58.6628 47.306 58.0039 47.8789 57.4883C48.4518 56.944 49.1393 56.6719 49.9414 56.6719C50.7148 56.7005 51.3737 56.987 51.918 57.5312C52.4622 58.0469 52.7487 58.6914 52.7773 59.4648V65.9961C52.7773 66.7695 53.1784 67.1562 53.9805 67.1562H64.1211C65.2096 67.099 66.112 66.6836 66.8281 65.9102C67.5443 65.1367 68.0599 64.263 68.375 63.2891C68.7188 62.2865 68.8906 61.2695 68.8906 60.2383C68.8906 59.207 68.7188 58.2044 68.375 57.2305C68.0599 56.2279 67.5443 55.3398 66.8281 54.5664C66.112 53.793 65.2096 53.3776 64.1211 53.3203H49.7695C48.0508 53.1771 47.1198 52.2461 46.9766 50.5273C46.9766 49.7253 47.2344 49.0378 47.75 48.4648C48.2943 47.8919 48.9674 47.5911 49.7695 47.5625H65.582ZM106.66 50.4414C106.66 51.2435 106.374 51.9167 105.801 52.4609C105.257 53.0339 104.583 53.3203 103.781 53.3203H86.5938C86.0495 53.349 85.5911 53.4779 85.2188 53.707C84.875 53.9076 84.6172 54.151 84.4453 54.4375C84.2734 54.6953 84.1875 54.9674 84.1875 55.2539C84.1875 55.5404 84.2734 55.8268 84.4453 56.1133C84.6172 56.3711 84.875 56.6146 85.2188 56.8438C85.5911 57.0443 86.0495 57.1589 86.5938 57.1875H98.7969C100.802 57.2448 102.449 57.7174 103.738 58.6055C105.056 59.4648 105.987 60.4674 106.531 61.6133C107.104 62.7305 107.391 63.8763 107.391 65.0508C107.391 66.1966 107.104 67.3424 106.531 68.4883C105.958 69.6055 105.027 70.6081 103.738 71.4961C102.449 72.3555 100.802 72.7852 98.7969 72.7852H98.5391C98.3672 72.8138 98.1953 72.8281 98.0234 72.8281H81.7812C80.9792 72.8281 80.2917 72.556 79.7188 72.0117C79.1745 71.4388 78.9023 70.7513 78.9023 69.9492C78.9023 69.1471 79.1888 68.474 79.7617 67.9297C80.306 67.3568 80.9792 67.0703 81.7812 67.0703H99.0547C99.599 67.099 100.043 66.9987 100.387 66.7695C100.759 66.5404 101.031 66.2826 101.203 65.9961C101.375 65.681 101.461 65.3659 101.461 65.0508C101.461 64.8503 101.375 64.5781 101.203 64.2344C101.031 63.862 100.759 63.5612 100.387 63.332C100.043 63.1029 99.599 62.974 99.0547 62.9453H86.8516C84.8464 62.888 83.1849 62.4297 81.8672 61.5703C80.5781 60.7109 79.6471 59.737 79.0742 58.6484C78.5299 57.5312 78.2578 56.3997 78.2578 55.2539C78.2578 54.1367 78.5443 53.0339 79.1172 51.9453C79.6901 50.8281 80.6211 49.8398 81.9102 48.9805C83.1992 48.1211 84.8464 47.6628 86.8516 47.6055H87.1094C87.2812 47.5768 87.4531 47.5625 87.625 47.5625H103.781C104.583 47.5625 105.257 47.849 105.801 48.4219C106.374 48.9661 106.66 49.6393 106.66 50.4414Z"/>
</mask>
<path d="M24.375 66.2539C24.375 65.4518 24.6471 64.7786 25.1914 64.2344C25.7643 63.6615 26.4518 63.375 27.2539 63.375H33.8281L32.7109 60.1953C32.2526 59.0208 31.7943 57.918 31.3359 56.8867C30.9062 55.8268 30.4049 54.8672 29.832 54.0078C29.3164 53.1484 28.7292 52.6901 28.0703 52.6328C27.3828 52.6901 26.7669 53.1484 26.2227 54.0078C25.6784 54.8672 25.1771 55.8268 24.7188 56.8867C24.2891 57.918 23.8451 59.0208 23.3867 60.1953L19.3047 71.3672C19.0182 71.9688 18.6458 72.4701 18.1875 72.8711C17.7578 73.2435 17.099 73.4297 16.2109 73.4297C15.3802 73.4297 14.6927 73.1432 14.1484 72.5703C13.6328 71.9974 13.4036 71.3099 13.4609 70.5078C13.4896 70.1354 13.5755 69.7917 13.7188 69.4766L18.4453 57.2734C19.763 54.0651 21.0807 51.4727 22.3984 49.4961C23.6875 47.5482 25.5781 46.5599 28.0703 46.5312C30.5339 46.5599 32.4102 47.5482 33.6992 49.4961C35.0169 51.4154 36.3346 54.0078 37.6523 57.2734L42.3789 69.4766C42.5221 69.7917 42.6081 70.1354 42.6367 70.5078C42.694 71.3099 42.4505 71.9974 41.9062 72.5703C41.3906 73.1432 40.7174 73.4297 39.8867 73.4297C38.9414 73.4297 38.2396 73.2435 37.7812 72.8711C37.3516 72.4701 36.9935 71.9688 36.707 71.3672L35.8906 69.1328H27.2539C26.4518 69.1328 25.7786 68.8464 25.2344 68.2734C24.6615 67.7292 24.375 67.056 24.375 66.2539ZM65.582 47.5625C67.5872 47.6771 69.2344 48.4505 70.5234 49.8828C71.8125 51.2865 72.7435 52.8906 73.3164 54.6953C73.8893 56.5 74.1758 58.3477 74.1758 60.2383C74.1758 62.1289 73.8893 63.9766 73.3164 65.7812C72.7721 67.5859 71.8411 69.2044 70.5234 70.6367C69.2344 72.0404 67.5872 72.7995 65.582 72.9141H49.7695C48.9961 72.8854 48.3372 72.6133 47.793 72.0977C47.2773 71.5534 47.0052 70.8945 46.9766 70.1211V59.4648C47.0052 58.6628 47.306 58.0039 47.8789 57.4883C48.4518 56.944 49.1393 56.6719 49.9414 56.6719C50.7148 56.7005 51.3737 56.987 51.918 57.5312C52.4622 58.0469 52.7487 58.6914 52.7773 59.4648V65.9961C52.7773 66.7695 53.1784 67.1562 53.9805 67.1562H64.1211C65.2096 67.099 66.112 66.6836 66.8281 65.9102C67.5443 65.1367 68.0599 64.263 68.375 63.2891C68.7188 62.2865 68.8906 61.2695 68.8906 60.2383C68.8906 59.207 68.7188 58.2044 68.375 57.2305C68.0599 56.2279 67.5443 55.3398 66.8281 54.5664C66.112 53.793 65.2096 53.3776 64.1211 53.3203H49.7695C48.0508 53.1771 47.1198 52.2461 46.9766 50.5273C46.9766 49.7253 47.2344 49.0378 47.75 48.4648C48.2943 47.8919 48.9674 47.5911 49.7695 47.5625H65.582ZM106.66 50.4414C106.66 51.2435 106.374 51.9167 105.801 52.4609C105.257 53.0339 104.583 53.3203 103.781 53.3203H86.5938C86.0495 53.349 85.5911 53.4779 85.2188 53.707C84.875 53.9076 84.6172 54.151 84.4453 54.4375C84.2734 54.6953 84.1875 54.9674 84.1875 55.2539C84.1875 55.5404 84.2734 55.8268 84.4453 56.1133C84.6172 56.3711 84.875 56.6146 85.2188 56.8438C85.5911 57.0443 86.0495 57.1589 86.5938 57.1875H98.7969C100.802 57.2448 102.449 57.7174 103.738 58.6055C105.056 59.4648 105.987 60.4674 106.531 61.6133C107.104 62.7305 107.391 63.8763 107.391 65.0508C107.391 66.1966 107.104 67.3424 106.531 68.4883C105.958 69.6055 105.027 70.6081 103.738 71.4961C102.449 72.3555 100.802 72.7852 98.7969 72.7852H98.5391C98.3672 72.8138 98.1953 72.8281 98.0234 72.8281H81.7812C80.9792 72.8281 80.2917 72.556 79.7188 72.0117C79.1745 71.4388 78.9023 70.7513 78.9023 69.9492C78.9023 69.1471 79.1888 68.474 79.7617 67.9297C80.306 67.3568 80.9792 67.0703 81.7812 67.0703H99.0547C99.599 67.099 100.043 66.9987 100.387 66.7695C100.759 66.5404 101.031 66.2826 101.203 65.9961C101.375 65.681 101.461 65.3659 101.461 65.0508C101.461 64.8503 101.375 64.5781 101.203 64.2344C101.031 63.862 100.759 63.5612 100.387 63.332C100.043 63.1029 99.599 62.974 99.0547 62.9453H86.8516C84.8464 62.888 83.1849 62.4297 81.8672 61.5703C80.5781 60.7109 79.6471 59.737 79.0742 58.6484C78.5299 57.5312 78.2578 56.3997 78.2578 55.2539C78.2578 54.1367 78.5443 53.0339 79.1172 51.9453C79.6901 50.8281 80.6211 49.8398 81.9102 48.9805C83.1992 48.1211 84.8464 47.6628 86.8516 47.6055H87.1094C87.2812 47.5768 87.4531 47.5625 87.625 47.5625H103.781C104.583 47.5625 105.257 47.849 105.801 48.4219C106.374 48.9661 106.66 49.6393 106.66 50.4414Z" fill="white"/>
<path d="M25.1914 64.2344L25.8985 64.9415L25.1914 64.2344ZM33.8281 63.375V64.375H35.2394L34.7716 63.0435L33.8281 63.375ZM32.7109 60.1953L33.6544 59.8638L33.6487 59.8477L33.6425 59.8318L32.7109 60.1953ZM31.3359 56.8867L30.4092 57.2624L30.4154 57.2777L30.4221 57.2929L31.3359 56.8867ZM29.832 54.0078L28.9745 54.5223L28.9868 54.5427L29 54.5625L29.832 54.0078ZM28.0703 52.6328L28.1569 51.6366L28.0721 51.6292L27.9873 51.6363L28.0703 52.6328ZM24.7188 56.8867L23.8008 56.4898L23.7957 56.5021L24.7188 56.8867ZM23.3867 60.1953L22.4551 59.8318L22.4512 59.8419L22.4475 59.8521L23.3867 60.1953ZM19.3047 71.3672L20.2075 71.7971L20.2278 71.7546L20.244 71.7104L19.3047 71.3672ZM18.1875 72.8711L18.8424 73.6268L18.846 73.6237L18.1875 72.8711ZM14.1484 72.5703L13.4051 73.2393L13.4142 73.2493L13.4234 73.2591L14.1484 72.5703ZM13.4609 70.5078L12.4639 70.4311L12.4635 70.4366L13.4609 70.5078ZM13.7188 69.4766L14.6291 69.8904L14.6409 69.8644L14.6512 69.8377L13.7188 69.4766ZM18.4453 57.2734L17.5203 56.8935L17.5165 56.9029L17.5128 56.9123L18.4453 57.2734ZM22.3984 49.4961L23.2305 50.0508L23.2324 50.048L22.3984 49.4961ZM28.0703 46.5312L28.0819 45.5313L28.0704 45.5312L28.0588 45.5313L28.0703 46.5312ZM33.6992 49.4961L32.8653 50.048L32.87 50.0551L32.8748 50.0621L33.6992 49.4961ZM37.6523 57.2734L38.5849 56.9122L38.5797 56.8992L37.6523 57.2734ZM42.3789 69.4766L41.4464 69.8377L41.4567 69.8644L41.4685 69.8904L42.3789 69.4766ZM42.6367 70.5078L43.6342 70.4366L43.6338 70.4311L42.6367 70.5078ZM41.9062 72.5703L41.1813 71.8816L41.172 71.8913L41.163 71.9013L41.9062 72.5703ZM37.7812 72.8711L37.0989 73.6021L37.124 73.6256L37.1507 73.6472L37.7812 72.8711ZM36.707 71.3672L35.7678 71.7104L35.7839 71.7546L35.8042 71.7971L36.707 71.3672ZM35.8906 69.1328L36.8299 68.7896L36.5899 68.1328H35.8906V69.1328ZM25.2344 68.2734L25.9594 67.5847L25.9417 67.5661L25.9231 67.5484L25.2344 68.2734ZM25.375 66.2539C25.375 65.7046 25.5504 65.2896 25.8985 64.9415L24.4843 63.5273C23.7439 64.2677 23.375 65.199 23.375 66.2539H25.375ZM25.8985 64.9415C26.286 64.554 26.7201 64.375 27.2539 64.375V62.375C26.1836 62.375 25.2426 62.769 24.4843 63.5273L25.8985 64.9415ZM27.2539 64.375H33.8281V62.375H27.2539V64.375ZM34.7716 63.0435L33.6544 59.8638L31.7675 60.5268L32.8847 63.7065L34.7716 63.0435ZM33.6425 59.8318C33.1792 58.6446 32.715 57.5274 32.2497 56.4806L30.4221 57.2929C30.8735 58.3085 31.326 59.3971 31.7794 60.5589L33.6425 59.8318ZM32.2627 56.511C31.8102 55.395 31.2783 54.3744 30.6641 53.4531L29 54.5625C29.5316 55.3599 30.0023 56.2586 30.4092 57.2624L32.2627 56.511ZM30.6895 53.4933C30.0973 52.5062 29.2743 51.7337 28.1569 51.6366L27.9837 53.6291C28.184 53.6465 28.5356 53.7907 28.9745 54.5223L30.6895 53.4933ZM27.9873 51.6363C26.8602 51.7302 26.0068 52.4796 25.3778 53.4728L27.0675 54.5429C27.527 53.8173 27.9055 53.65 28.1534 53.6294L27.9873 51.6363ZM25.3778 53.4728C24.8022 54.3816 24.2772 55.3883 23.8009 56.4898L25.6366 57.2836C26.077 56.2653 26.5546 55.3527 27.0675 54.5429L25.3778 53.4728ZM23.7957 56.5021C23.3627 57.5412 22.9159 58.6511 22.4551 59.8318L24.3183 60.5589C24.7742 59.3906 25.2154 58.2948 25.6418 57.2713L23.7957 56.5021ZM22.4475 59.8521L18.3654 71.024L20.244 71.7104L24.326 60.5385L22.4475 59.8521ZM18.4018 70.9373C18.1684 71.4274 17.8754 71.8154 17.529 72.1185L18.846 73.6237C19.4162 73.1247 19.868 72.5101 20.2075 71.7971L18.4018 70.9373ZM17.5326 72.1154C17.3628 72.2626 16.9871 72.4297 16.2109 72.4297V74.4297C17.2108 74.4297 18.1529 74.2244 18.8424 73.6268L17.5326 72.1154ZM16.2109 72.4297C15.6386 72.4297 15.2183 72.2446 14.8734 71.8816L13.4234 73.2591C14.1671 74.0419 15.1219 74.4297 16.2109 74.4297V72.4297ZM14.8917 71.9013C14.5665 71.54 14.4195 71.1233 14.4584 70.5791L12.4635 70.4366C12.3878 71.4965 12.6991 72.4548 13.4051 73.2393L14.8917 71.9013ZM14.458 70.5845C14.4784 70.3194 14.538 70.0909 14.6291 69.8904L12.8084 69.0628C12.6131 69.4924 12.5008 69.9514 12.4639 70.4311L14.458 70.5845ZM14.6512 69.8377L19.3778 57.6346L17.5128 56.9123L12.7863 69.1154L14.6512 69.8377ZM19.3703 57.6534C20.6733 54.481 21.962 51.9535 23.2305 50.0508L21.5664 48.9414C20.1995 50.9918 18.8528 53.6492 17.5203 56.8935L19.3703 57.6534ZM23.2324 50.048C24.3244 48.3978 25.8947 47.5563 28.0818 47.5312L28.0588 45.5313C25.2615 45.5635 23.0506 46.6986 21.5645 48.9442L23.2324 50.048ZM28.0587 47.5312C30.2124 47.5562 31.7707 48.394 32.8653 50.048L34.5332 48.9442C33.0496 46.7024 30.8553 45.5636 28.0819 45.5313L28.0587 47.5312ZM32.8748 50.0621C34.1361 51.8992 35.4222 54.4189 36.725 57.6476L38.5797 56.8992C37.2471 53.5967 35.8977 50.9315 34.5236 48.9301L32.8748 50.0621ZM36.7198 57.6346L41.4464 69.8377L43.3114 69.1154L38.5848 56.9123L36.7198 57.6346ZM41.4685 69.8904C41.5597 70.0909 41.6193 70.3194 41.6397 70.5845L43.6338 70.4311C43.5969 69.9514 43.4846 69.4924 43.2893 69.0628L41.4685 69.8904ZM41.6393 70.5791C41.6769 71.1064 41.5281 71.5165 41.1813 71.8816L42.6312 73.2591C43.373 72.4783 43.7111 71.5134 43.6342 70.4366L41.6393 70.5791ZM41.163 71.9013C40.8529 72.2458 40.4587 72.4297 39.8867 72.4297V74.4297C40.9761 74.4297 41.9283 74.0407 42.6495 73.2393L41.163 71.9013ZM39.8867 72.4297C39.0421 72.4297 38.6125 72.258 38.4118 72.095L37.1507 73.6472C37.8666 74.2289 38.8407 74.4297 39.8867 74.4297V72.4297ZM38.4636 72.14C38.1371 71.8353 37.8495 71.4405 37.6099 70.9373L35.8042 71.7971C36.1374 72.497 36.5661 73.1048 37.0989 73.6021L38.4636 72.14ZM37.6463 71.024L36.8299 68.7896L34.9514 69.476L35.7678 71.7104L37.6463 71.024ZM35.8906 68.1328H27.2539V70.1328H35.8906V68.1328ZM27.2539 68.1328C26.7213 68.1328 26.3117 67.9555 25.9594 67.5847L24.5094 68.9622C25.2456 69.7372 26.1824 70.1328 27.2539 70.1328V68.1328ZM25.9231 67.5484C25.5523 67.1961 25.375 66.7865 25.375 66.2539H23.375C23.375 67.3254 23.7706 68.2622 24.5456 68.9984L25.9231 67.5484ZM65.582 47.5625L65.6391 46.5641L65.6106 46.5625H65.582V47.5625ZM70.5234 49.8828L69.7801 50.5518L69.7869 50.5592L70.5234 49.8828ZM73.3164 65.7812L72.3633 65.4787L72.3611 65.4856L72.359 65.4925L73.3164 65.7812ZM70.5234 70.6367L69.7875 69.9597L69.7869 69.9603L70.5234 70.6367ZM65.582 72.9141V73.9141H65.6106L65.6391 73.9124L65.582 72.9141ZM49.7695 72.9141L49.7325 73.9134L49.751 73.9141H49.7695V72.9141ZM47.793 72.0977L47.067 72.7854L47.0856 72.805L47.1052 72.8236L47.793 72.0977ZM46.9766 70.1211H45.9766V70.1396L45.9772 70.1581L46.9766 70.1211ZM46.9766 59.4648L45.9772 59.4292L45.9766 59.447V59.4648H46.9766ZM47.8789 57.4883L48.5479 58.2316L48.5579 58.2226L48.5677 58.2133L47.8789 57.4883ZM49.9414 56.6719L49.9784 55.6726L49.9599 55.6719H49.9414V56.6719ZM51.918 57.5312L51.2109 58.2384L51.2204 58.2479L51.2302 58.2572L51.918 57.5312ZM52.7773 59.4648H53.7773V59.4463L53.7767 59.4278L52.7773 59.4648ZM64.1211 67.1562V68.1562H64.1474L64.1737 68.1549L64.1211 67.1562ZM66.8281 65.9102L67.5619 66.5896L66.8281 65.9102ZM68.375 63.2891L67.4291 62.9647L67.4262 62.973L67.4236 62.9812L68.375 63.2891ZM68.375 57.2305L67.421 57.5303L67.4262 57.5469L67.432 57.5633L68.375 57.2305ZM66.8281 54.5664L67.5619 53.887L66.8281 54.5664ZM64.1211 53.3203L64.1737 52.3217L64.1474 52.3203H64.1211V53.3203ZM49.7695 53.3203L49.6865 54.3169L49.7279 54.3203H49.7695V53.3203ZM46.9766 50.5273H45.9766V50.5689L45.98 50.6104L46.9766 50.5273ZM47.75 48.4648L47.025 47.7761L47.0157 47.7859L47.0067 47.7959L47.75 48.4648ZM49.7695 47.5625V46.5625H49.7517L49.7338 46.5631L49.7695 47.5625ZM65.525 48.5609C67.2794 48.6611 68.6756 49.3245 69.7801 50.5518L71.2667 49.2138C69.7932 47.5765 67.8951 46.693 65.6391 46.5641L65.525 48.5609ZM69.7869 50.5592C70.9781 51.8562 71.8348 53.333 72.3633 54.9979L74.2695 54.3927C73.6522 52.4482 72.6469 50.7167 71.26 49.2064L69.7869 50.5592ZM72.3633 54.9979C72.9052 56.7049 73.1758 58.4505 73.1758 60.2383H75.1758C75.1758 58.2448 74.8735 56.2951 74.2695 54.3927L72.3633 54.9979ZM73.1758 60.2383C73.1758 62.0261 72.9052 63.7717 72.3633 65.4787L74.2695 66.0838C74.8735 64.1814 75.1758 62.2317 75.1758 60.2383H73.1758ZM72.359 65.4925C71.8597 67.1479 71.0065 68.6347 69.7875 69.9597L71.2594 71.3138C72.6758 69.7741 73.6845 68.0239 74.2738 66.07L72.359 65.4925ZM69.7869 69.9603C68.6841 71.1612 67.2859 71.8151 65.525 71.9157L65.6391 73.9124C67.8885 73.7839 69.7847 72.9195 71.26 71.3131L69.7869 69.9603ZM65.582 71.9141H49.7695V73.9141H65.582V71.9141ZM49.8065 71.9147C49.2674 71.8948 48.8424 71.7143 48.4807 71.3717L47.1052 72.8236C47.8321 73.5123 48.7248 73.8761 49.7325 73.9134L49.8065 71.9147ZM48.5189 71.4099C48.1763 71.0483 47.9958 70.6232 47.9759 70.0841L45.9772 70.1581C46.0146 71.1659 46.3784 72.0585 47.067 72.7854L48.5189 71.4099ZM47.9766 70.1211V59.4648H45.9766V70.1211H47.9766ZM47.9759 59.5005C47.9953 58.9568 48.1856 58.5576 48.5479 58.2316L47.2099 56.745C46.4264 57.4502 46.0151 58.3687 45.9772 59.4292L47.9759 59.5005ZM48.5677 58.2133C48.9516 57.8485 49.3914 57.6719 49.9414 57.6719V55.6719C48.8873 55.6719 47.952 56.0395 47.1902 56.7633L48.5677 58.2133ZM49.9044 57.6712C50.4271 57.6906 50.8462 57.8737 51.2109 58.2384L52.6251 56.8241C51.9012 56.1003 51.0025 55.7105 49.9784 55.6726L49.9044 57.6712ZM51.2302 58.2572C51.5777 58.5864 51.7587 58.9806 51.778 59.5019L53.7767 59.4278C53.7387 58.4022 53.3467 57.5073 52.6057 56.8053L51.2302 58.2572ZM51.7773 59.4648V65.9961H53.7773V59.4648H51.7773ZM51.7773 65.9961C51.7773 66.5464 51.922 67.1405 52.384 67.5861C52.8392 68.025 53.4342 68.1562 53.9805 68.1562V66.1562C53.7247 66.1562 53.7181 66.0941 53.7723 66.1464C53.7967 66.1699 53.8016 66.1884 53.7977 66.177C53.7919 66.1603 53.7773 66.1059 53.7773 65.9961H51.7773ZM53.9805 68.1562H64.1211V66.1562H53.9805V68.1562ZM64.1737 68.1549C65.5123 68.0844 66.6623 67.5611 67.5619 66.5896L66.0944 65.2307C65.5617 65.806 64.907 66.1135 64.0685 66.1576L64.1737 68.1549ZM67.5619 66.5896C68.3737 65.7128 68.9653 64.7132 69.3264 63.5969L67.4236 62.9812C67.1545 63.8128 66.7148 64.5606 66.0944 65.2307L67.5619 66.5896ZM69.3209 63.6134C69.6995 62.5093 69.8906 61.3829 69.8906 60.2383H67.8906C67.8906 61.1561 67.738 62.0636 67.4291 62.9647L69.3209 63.6134ZM69.8906 60.2383C69.8906 59.0935 69.6994 57.9783 69.318 56.8976L67.432 57.5633C67.7381 58.4305 67.8906 59.3206 67.8906 60.2383H69.8906ZM69.329 56.9306C68.9694 55.7863 68.3783 54.7688 67.5619 53.887L66.0944 55.2458C66.7102 55.9109 67.1504 56.6694 67.421 57.5303L69.329 56.9306ZM67.5619 53.887C66.6623 52.9154 65.5123 52.3921 64.1737 52.3217L64.0685 54.3189C64.907 54.3631 65.5617 54.6705 66.0944 55.2458L67.5619 53.887ZM64.1211 52.3203H49.7695V54.3203H64.1211V52.3203ZM49.8526 52.3238C49.1548 52.2656 48.7416 52.0598 48.4893 51.8075C48.2371 51.5553 48.0313 51.1421 47.9731 50.4443L45.98 50.6104C46.0651 51.6313 46.3964 52.543 47.0751 53.2218C47.7538 53.9005 48.6655 54.2318 49.6865 54.3169L49.8526 52.3238ZM47.9766 50.5273C47.9766 49.9613 48.1502 49.5151 48.4933 49.1338L47.0067 47.7959C46.3186 48.5604 45.9766 49.4892 45.9766 50.5273H47.9766ZM48.475 49.1536C48.8359 48.7737 49.2601 48.5813 49.8052 48.5619L49.7338 46.5631C48.6748 46.601 47.7527 47.0101 47.025 47.7761L48.475 49.1536ZM49.7695 48.5625H65.582V46.5625H49.7695V48.5625ZM105.801 52.4609L105.112 51.7359L105.093 51.7536L105.076 51.7722L105.801 52.4609ZM86.5938 53.3203V52.3203H86.5675L86.5412 52.3217L86.5938 53.3203ZM85.2188 53.707L85.7226 54.5708L85.7328 54.5649L85.7428 54.5587L85.2188 53.707ZM84.4453 54.4375L85.2774 54.9922L85.2906 54.9724L85.3028 54.952L84.4453 54.4375ZM84.4453 56.1133L83.5878 56.6278L83.6001 56.6482L83.6133 56.668L84.4453 56.1133ZM85.2188 56.8438L84.664 57.6758L84.7032 57.7019L84.7447 57.7242L85.2188 56.8438ZM86.5938 57.1875L86.5412 58.1861L86.5675 58.1875H86.5938V57.1875ZM98.7969 57.1875L98.8254 56.1879L98.8112 56.1875H98.7969V57.1875ZM103.738 58.6055L103.171 59.429L103.181 59.4362L103.192 59.4431L103.738 58.6055ZM106.531 61.6133L105.628 62.0423L105.634 62.0561L105.641 62.0696L106.531 61.6133ZM106.531 68.4883L107.421 68.9446L107.426 68.9355L106.531 68.4883ZM103.738 71.4961L104.293 72.3281L104.299 72.3239L104.306 72.3196L103.738 71.4961ZM98.5391 72.7852V71.7852H98.4563L98.3747 71.7988L98.5391 72.7852ZM79.7188 72.0117L78.9938 72.7005L79.0114 72.7191L79.03 72.7367L79.7188 72.0117ZM79.7617 67.9297L80.4505 68.6547L80.4691 68.637L80.4867 68.6184L79.7617 67.9297ZM99.0547 67.0703L99.1072 66.0717L99.081 66.0703H99.0547V67.0703ZM100.387 66.7695L99.8626 65.9179L99.8471 65.9274L99.832 65.9375L100.387 66.7695ZM101.203 65.9961L102.061 66.5106L102.071 66.493L102.081 66.4749L101.203 65.9961ZM101.203 64.2344L100.295 64.6534L100.302 64.6676L100.309 64.6816L101.203 64.2344ZM100.387 63.332L99.832 64.1641L99.8471 64.1742L99.8626 64.1837L100.387 63.332ZM99.0547 62.9453L99.1072 61.9467L99.081 61.9453H99.0547V62.9453ZM86.8516 62.9453L86.823 63.9449L86.8373 63.9453H86.8516V62.9453ZM81.8672 61.5703L81.3125 62.4024L81.3209 62.4079L81.8672 61.5703ZM79.0742 58.6484L78.1752 59.0864L78.182 59.1004L78.1893 59.1142L79.0742 58.6484ZM79.1172 51.9453L80.0022 52.4111L80.007 52.4016L79.1172 51.9453ZM86.8516 47.6055V46.6055H86.8373L86.823 46.6059L86.8516 47.6055ZM87.1094 47.6055V48.6055H87.1921L87.2738 48.5919L87.1094 47.6055ZM105.801 48.4219L105.076 49.1106L105.093 49.1292L105.112 49.1469L105.801 48.4219ZM105.66 50.4414C105.66 50.974 105.483 51.3836 105.112 51.7359L106.49 53.1859C107.265 52.4497 107.66 51.5129 107.66 50.4414H105.66ZM105.076 51.7722C104.723 52.143 104.314 52.3203 103.781 52.3203V54.3203C104.853 54.3203 105.79 53.9247 106.526 53.1497L105.076 51.7722ZM103.781 52.3203H86.5938V54.3203H103.781V52.3203ZM86.5412 52.3217C85.8704 52.357 85.2404 52.5195 84.6947 52.8554L85.7428 54.5587C85.9419 54.4362 86.2285 54.3409 86.6463 54.3189L86.5412 52.3217ZM84.7149 52.8433C84.2535 53.1124 83.8615 53.4669 83.5878 53.923L85.3028 54.952C85.3729 54.8351 85.4965 54.7027 85.7226 54.5708L84.7149 52.8433ZM83.6133 53.8828C83.3412 54.2908 83.1875 54.7538 83.1875 55.2539H85.1875C85.1875 55.1811 85.2056 55.0998 85.2774 54.9922L83.6133 53.8828ZM83.1875 55.2539C83.1875 55.7499 83.3384 56.2121 83.5878 56.6278L85.3028 55.5988C85.2085 55.4416 85.1875 55.3309 85.1875 55.2539H83.1875ZM83.6133 56.668C83.8784 57.0657 84.2451 57.3965 84.664 57.6758L85.7735 56.0117C85.5049 55.8327 85.356 55.6765 85.2774 55.5586L83.6133 56.668ZM84.7447 57.7242C85.279 58.0119 85.8904 58.1519 86.5412 58.1861L86.6463 56.1889C86.2085 56.1658 85.9033 56.0766 85.6928 55.9633L84.7447 57.7242ZM86.5938 58.1875H98.7969V56.1875H86.5938V58.1875ZM98.7683 58.1871C100.634 58.2404 102.08 58.6773 103.171 59.429L104.306 57.782C102.819 56.7575 100.97 56.2492 98.8254 56.1879L98.7683 58.1871ZM103.192 59.4431C104.392 60.2259 105.18 61.0988 105.628 62.0423L107.435 61.1842C106.794 59.8361 105.72 58.7038 104.285 57.7679L103.192 59.4431ZM105.641 62.0696C106.147 63.0556 106.391 64.0459 106.391 65.0508H108.391C108.391 63.7067 108.061 62.4054 107.421 61.157L105.641 62.0696ZM106.391 65.0508C106.391 66.0239 106.149 67.0175 105.637 68.0411L107.426 68.9355C108.06 67.6674 108.391 66.3694 108.391 65.0508H106.391ZM105.641 68.032C105.16 68.97 104.357 69.8556 103.171 70.6726L104.306 72.3196C105.698 71.3605 106.756 70.241 107.421 68.9446L105.641 68.032ZM103.184 70.664C102.101 71.3858 100.662 71.7852 98.7969 71.7852V73.7852C100.942 73.7852 102.798 73.3251 104.293 72.3281L103.184 70.664ZM98.7969 71.7852H98.5391V73.7852H98.7969V71.7852ZM98.3747 71.7988C98.2564 71.8185 98.1395 71.8281 98.0234 71.8281V73.8281C98.2511 73.8281 98.478 73.8091 98.7035 73.7716L98.3747 71.7988ZM98.0234 71.8281H81.7812V73.8281H98.0234V71.8281ZM81.7812 71.8281C81.2312 71.8281 80.7915 71.6515 80.4075 71.2867L79.03 72.7367C79.7918 73.4605 80.7271 73.8281 81.7812 73.8281V71.8281ZM80.4437 71.323C80.079 70.939 79.9023 70.4992 79.9023 69.9492H77.9023C77.9023 71.0034 78.27 71.9386 78.9938 72.7005L80.4437 71.323ZM79.9023 69.9492C79.9023 69.4166 80.0796 69.007 80.4505 68.6547L79.073 67.2047C78.298 67.9409 77.9023 68.8777 77.9023 69.9492H79.9023ZM80.4867 68.6184C80.839 68.2476 81.2486 68.0703 81.7812 68.0703V66.0703C80.7097 66.0703 79.773 66.4659 79.0367 67.2409L80.4867 68.6184ZM81.7812 68.0703H99.0547V66.0703H81.7812V68.0703ZM99.0021 68.0689C99.6931 68.1053 100.369 67.9833 100.941 67.6016L99.832 65.9375C99.7171 66.0141 99.5048 66.0926 99.1072 66.0717L99.0021 68.0689ZM100.911 67.6212C101.379 67.333 101.785 66.9704 102.061 66.5106L100.346 65.4816C100.278 65.5947 100.139 65.7477 99.8626 65.9179L100.911 67.6212ZM102.081 66.4749C102.322 66.0336 102.461 65.5553 102.461 65.0508H100.461C100.461 65.1765 100.428 65.3283 100.325 65.5172L102.081 66.4749ZM102.461 65.0508C102.461 64.6096 102.286 64.1649 102.098 63.7872L100.309 64.6816C100.379 64.8214 100.42 64.9253 100.443 64.9974C100.467 65.0737 100.461 65.0858 100.461 65.0508H102.461ZM102.111 63.8153C101.851 63.252 101.439 62.8056 100.911 62.4804L99.8626 64.1837C100.079 64.3168 100.211 64.4719 100.295 64.6534L102.111 63.8153ZM100.941 62.5C100.408 62.1443 99.7751 61.9818 99.1072 61.9467L99.0021 63.9439C99.4228 63.9661 99.6781 64.0615 99.832 64.1641L100.941 62.5ZM99.0547 61.9453H86.8516V63.9453H99.0547V61.9453ZM86.8801 61.9457C85.0091 61.8923 83.5397 61.4672 82.4135 60.7327L81.3209 62.4079C82.8301 63.3922 84.6836 63.8838 86.823 63.9449L86.8801 61.9457ZM82.4219 60.7383C81.2364 59.9479 80.4366 59.09 79.9591 58.1827L78.1893 59.1142C78.8576 60.384 79.9198 61.4739 81.3125 62.4024L82.4219 60.7383ZM79.9732 58.2105C79.4897 57.218 79.2578 56.2354 79.2578 55.2539H77.2578C77.2578 56.564 77.5702 57.8445 78.1752 59.0864L79.9732 58.2105ZM79.2578 55.2539C79.2578 54.3149 79.497 53.3708 80.0021 52.4111L78.2323 51.4796C77.5916 52.6969 77.2578 53.9585 77.2578 55.2539H79.2578ZM80.007 52.4016C80.4859 51.4679 81.2849 50.5992 82.4649 49.8125L81.3555 48.1484C79.9573 49.0805 78.8943 50.1884 78.2274 51.489L80.007 52.4016ZM82.4649 49.8125C83.5579 49.0838 85.0081 48.6585 86.8801 48.6051L86.823 46.6059C84.6846 46.667 82.8405 47.1584 81.3555 48.1484L82.4649 49.8125ZM86.8516 48.6055H87.1094V46.6055H86.8516V48.6055ZM87.2738 48.5919C87.3921 48.5721 87.509 48.5625 87.625 48.5625V46.5625C87.3973 46.5625 87.1704 46.5815 86.945 46.6191L87.2738 48.5919ZM87.625 48.5625H103.781V46.5625H87.625V48.5625ZM103.781 48.5625C104.314 48.5625 104.723 48.7398 105.076 49.1106L106.526 47.7331C105.79 46.9581 104.853 46.5625 103.781 46.5625V48.5625ZM105.112 49.1469C105.483 49.4992 105.66 49.9088 105.66 50.4414H107.66C107.66 49.3699 107.265 48.4331 106.49 47.6969L105.112 49.1469Z" fill="black" mask="url(#path-2-outside-1_0_1)"/>
</g>
<defs>
<filter id="filter0_d_0_1" x="9.375" y="46.5312" width="102.016" height="34.8984" filterUnits="userSpaceOnUse" color-interpolation-filters="sRGB">
<feFlood flood-opacity="0" result="BackgroundImageFix"/>
<feColorMatrix in="SourceAlpha" type="matrix" values="0 0 0 0 0 0 0 0 0 0 0 0 0 0 0 0 0 0 127 0" result="hardAlpha"/>
<feOffset dy="4"/>
<feGaussianBlur stdDeviation="2"/>
<feComposite in2="hardAlpha" operator="out"/>
<feColorMatrix type="matrix" values="0 0 0 0 0 0 0 0 0 0 0 0 0 0 0 0 0 0 0.25 0"/>
<feBlend mode="normal" in2="BackgroundImageFix" result="effect1_dropShadow_0_1"/>
<feBlend mode="normal" in="SourceGraphic" in2="effect1_dropShadow_0_1" result="shape"/>
</filter>
</defs>
</svg>
