<svg width="100" height="100" viewBox="0 0 100 100" fill="none" xmlns="http://www.w3.org/2000/svg">
<rect width="100" height="100" rx="21" fill="black"/>
<path d="M25.856 68.634C25.768 69.91 25.086 70.79 23.81 71.274C22.578 71.758 20.334 72 17.078 72C13.822 72 11.094 71.714 8.894 71.142C6.738 70.526 5.66 69.756 5.66 68.832C5.66 67.776 7.618 61.044 11.534 48.636C15.45 36.184 17.694 29.012 18.266 27.12C18.486 26.548 20.246 26.086 23.546 25.734C26.89 25.338 30.454 25.14 34.238 25.14C38.066 25.14 40.178 25.8 40.574 27.12C48.89 54.752 53.048 68.788 53.048 69.228C53.048 69.668 52.784 70.108 52.256 70.548C51.024 71.516 48.582 72 44.93 72C37.142 72 33.16 71.076 32.984 69.228L32.522 64.938H26.186L25.856 68.634ZM31.136 52.398L30.146 40.518H28.694L27.572 52.398H31.136ZM73.9886 72.594C66.6846 72.594 61.3386 71.89 57.9506 70.482C56.2346 69.734 55.3766 69.008 55.3766 68.304C55.3766 66.5 55.9046 64.388 56.9606 61.968C58.0166 59.548 58.9406 58.338 59.7326 58.338C60.1726 58.338 61.6466 58.822 64.1546 59.79C66.7066 60.758 68.8406 61.242 70.5566 61.242C72.3166 61.242 73.4606 61.132 73.9886 60.912C74.5606 60.692 74.8466 60.274 74.8466 59.658C74.8466 58.998 74.4066 58.492 73.5266 58.14C72.6466 57.744 71.5466 57.48 70.2266 57.348C68.9066 57.216 67.4766 56.952 65.9366 56.556C64.4406 56.16 63.0326 55.654 61.7126 55.038C60.3926 54.422 59.2926 53.41 58.4126 52.002C57.5326 50.55 57.0926 49.01 57.0926 47.382C57.0926 45.71 57.1366 44.478 57.2246 43.686C57.3126 42.85 57.6646 41.706 58.2806 40.254C58.9406 38.758 59.8426 37.548 60.9866 36.624C62.1746 35.7 63.9786 34.864 66.3986 34.116C68.8626 33.368 71.6126 32.994 74.6486 32.994C77.6846 32.994 80.2146 33.104 82.2386 33.324C84.3066 33.5 85.9126 33.742 87.0566 34.05C88.2446 34.358 89.2126 34.71 89.9606 35.106C91.2366 35.766 91.8746 36.492 91.8746 37.284C91.8746 39 91.2586 40.98 90.0266 43.224C88.7946 45.468 87.8046 46.59 87.0566 46.59C86.3526 46.59 84.7906 46.216 82.3706 45.468C79.9506 44.676 78.1686 44.28 77.0246 44.28C75.1766 44.28 74.2526 44.808 74.2526 45.864C74.2526 46.524 74.8686 47.03 76.1006 47.382C77.3766 47.69 78.8946 48.02 80.6546 48.372C82.4146 48.724 84.1746 49.23 85.9346 49.89C87.7386 50.506 89.2566 51.65 90.4886 53.322C91.7646 54.994 92.4026 57.106 92.4026 59.658C92.4026 68.282 86.2646 72.594 73.9886 72.594Z" fill="white"/>
</svg>
