<svg width="53" height="14" viewBox="0 0 53 14" fill="none" xmlns="http://www.w3.org/2000/svg">
<path d="M9.396 9.664C9.42 9.736 9.516 9.772 9.684 9.772V10H7.248V9.772C7.352 9.772 7.424 9.748 7.464 9.7C7.504 9.652 7.512 9.604 7.488 9.556L6.828 7.864H2.916L2.256 9.556L2.244 9.592C2.244 9.64 2.264 9.684 2.304 9.724C2.352 9.756 2.412 9.772 2.484 9.772V10H0.12V9.772C0.28 9.772 0.376 9.736 0.408 9.664L3.744 1.552C3.768 1.504 3.78 1.46 3.78 1.42C3.78 1.348 3.748 1.3 3.684 1.276C3.62 1.244 3.552 1.228 3.48 1.228V0.999999H6.276V1.228C6.204 1.228 6.136 1.244 6.072 1.276C6.008 1.3 5.976 1.348 5.976 1.42C5.976 1.46 5.988 1.504 6.012 1.552L9.396 9.664ZM4.872 2.872L3.456 6.484H6.288L4.872 2.872ZM16.4686 9.64C16.4686 9.68 16.4966 9.712 16.5526 9.736C16.6166 9.76 16.6766 9.772 16.7326 9.772V10H15.0166V9.58C14.5366 9.972 13.9646 10.168 13.3006 10.168C12.7086 10.168 12.1806 10.048 11.7166 9.808C11.2526 9.568 10.8886 9.228 10.6246 8.788C10.3606 8.348 10.2286 7.84 10.2286 7.264C10.2286 6.68 10.3606 6.164 10.6246 5.716C10.8966 5.26 11.2646 4.908 11.7286 4.66C12.2006 4.404 12.7246 4.276 13.3006 4.276C13.9646 4.276 14.5366 4.464 15.0166 4.84V1.36C15.0166 1.32 14.9886 1.288 14.9326 1.264C14.8766 1.24 14.8206 1.228 14.7646 1.228V0.999999H16.7206V1.228C16.6646 1.228 16.6086 1.24 16.5526 1.264C16.4966 1.288 16.4686 1.32 16.4686 1.36V9.64ZM13.3726 8.884C13.6846 8.884 13.9686 8.812 14.2246 8.668C14.4886 8.524 14.6926 8.332 14.8366 8.092C14.9886 7.844 15.0646 7.584 15.0646 7.312C15.0646 6.824 14.9046 6.424 14.5846 6.112C14.2726 5.792 13.8686 5.632 13.3726 5.632C12.8766 5.632 12.4686 5.788 12.1486 6.1C11.8366 6.404 11.6806 6.8 11.6806 7.288C11.6806 7.776 11.8406 8.164 12.1606 8.452C12.4886 8.74 12.8926 8.884 13.3726 8.884ZM21.592 10.228C20.904 10.228 20.264 10.068 19.672 9.748C19.08 9.42 18.508 8.972 17.956 8.404C17.94 8.388 17.92 8.38 17.896 8.38C17.824 8.38 17.744 8.424 17.656 8.512L17.5 8.344L19.168 6.772L19.324 6.94C19.276 6.98 19.232 7.036 19.192 7.108C19.152 7.18 19.144 7.232 19.168 7.264C19.912 8.208 20.724 8.68 21.604 8.68C21.908 8.68 22.18 8.62 22.42 8.5C22.668 8.38 22.86 8.228 22.996 8.044C23.132 7.852 23.2 7.656 23.2 7.456C23.2 6.984 22.788 6.596 21.964 6.292L20.488 5.74C19.896 5.524 19.432 5.228 19.096 4.852C18.768 4.476 18.604 4.024 18.604 3.496C18.604 2.976 18.724 2.524 18.964 2.14C19.212 1.748 19.56 1.448 20.008 1.24C20.456 1.032 20.976 0.927999 21.568 0.927999C22.128 0.927999 22.596 1.016 22.972 1.192C23.356 1.36 23.764 1.62 24.196 1.972C24.204 1.98 24.22 1.984 24.244 1.984C24.284 1.984 24.328 1.972 24.376 1.948C24.432 1.916 24.476 1.884 24.508 1.852L24.664 2.008L23.176 3.472L23.02 3.304C23.06 3.264 23.088 3.22 23.104 3.172C23.128 3.116 23.124 3.076 23.092 3.052C22.572 2.636 22.056 2.428 21.544 2.428C21.136 2.428 20.812 2.524 20.572 2.716C20.332 2.9 20.212 3.136 20.212 3.424C20.212 3.68 20.276 3.876 20.404 4.012C20.54 4.148 20.744 4.264 21.016 4.36L22.468 4.888C22.972 5.072 23.392 5.268 23.728 5.476C24.064 5.676 24.332 5.944 24.532 6.28C24.732 6.608 24.832 7.02 24.832 7.516C24.832 7.996 24.704 8.444 24.448 8.86C24.2 9.268 23.828 9.6 23.332 9.856C22.844 10.104 22.264 10.228 21.592 10.228ZM28.5771 10.252C28.0651 10.252 27.5891 10.124 27.1491 9.868C26.7091 9.612 26.3571 9.264 26.0931 8.824C25.8371 8.384 25.7091 7.904 25.7091 7.384C25.7091 6.768 25.8371 6.228 26.0931 5.764C26.3571 5.292 26.7091 4.932 27.1491 4.684C27.5891 4.428 28.0731 4.3 28.6011 4.3C28.9771 4.3 29.2971 4.344 29.5611 4.432C29.8331 4.52 30.0491 4.628 30.2091 4.756C30.3771 4.876 30.5851 5.048 30.8331 5.272C30.8491 5.288 30.8691 5.296 30.8931 5.296C30.9251 5.296 30.9611 5.284 31.0011 5.26C31.0491 5.236 31.0851 5.212 31.1091 5.188L31.2651 5.356L29.9691 6.556L29.8131 6.388C29.8531 6.356 29.8851 6.312 29.9091 6.256C29.9411 6.192 29.9451 6.144 29.9211 6.112C29.6331 5.76 29.2371 5.584 28.7331 5.584C28.2771 5.584 27.8931 5.736 27.5811 6.04C27.2771 6.344 27.1251 6.74 27.1251 7.228C27.1251 7.732 27.2731 8.136 27.5691 8.44C27.8651 8.744 28.2531 8.896 28.7331 8.896C28.9731 8.896 29.1691 8.868 29.3211 8.812C29.4731 8.748 29.6451 8.632 29.8371 8.464C29.8531 8.448 29.8611 8.428 29.8611 8.404C29.8611 8.356 29.8331 8.304 29.7771 8.248L29.9211 8.068L31.2171 9.148L31.0731 9.316C30.9451 9.244 30.8571 9.232 30.8091 9.28C30.5131 9.608 30.2011 9.852 29.8731 10.012C29.5531 10.172 29.1211 10.252 28.5771 10.252ZM38.4854 4.708C38.4294 4.708 38.3694 4.72 38.3054 4.744C38.2494 4.768 38.2214 4.8 38.2214 4.84V9.64C38.2214 9.68 38.2494 9.712 38.3054 9.736C38.3694 9.76 38.4294 9.772 38.4854 9.772V10H36.7094V9.34C36.2054 9.884 35.5694 10.156 34.8014 10.156C34.2174 10.156 33.7014 10.04 33.2534 9.808C32.8134 9.568 32.4694 9.228 32.2214 8.788C31.9814 8.348 31.8614 7.836 31.8614 7.252C31.8614 6.684 31.9934 6.18 32.2574 5.74C32.5294 5.292 32.8894 4.948 33.3374 4.708C33.7854 4.46 34.2734 4.336 34.8014 4.336C35.5694 4.336 36.2054 4.632 36.7094 5.224V4.48H38.4854V4.708ZM34.9814 8.884C35.3094 8.884 35.6014 8.812 35.8574 8.668C36.1214 8.516 36.3254 8.32 36.4694 8.08C36.6134 7.832 36.6854 7.568 36.6854 7.288C36.6854 6.808 36.5254 6.412 36.2054 6.1C35.8934 5.788 35.4854 5.632 34.9814 5.632C34.4934 5.632 34.0894 5.784 33.7694 6.088C33.4574 6.392 33.3014 6.78 33.3014 7.252C33.3014 7.748 33.4614 8.144 33.7814 8.44C34.1094 8.736 34.5094 8.884 34.9814 8.884ZM43.2232 4.336C43.7912 4.336 44.2992 4.46 44.7472 4.708C45.1952 4.948 45.5432 5.292 45.7912 5.74C46.0472 6.18 46.1752 6.688 46.1752 7.264C46.1752 7.848 46.0472 8.36 45.7912 8.8C45.5432 9.24 45.1912 9.58 44.7352 9.82C44.2872 10.06 43.7712 10.18 43.1872 10.18C42.5232 10.18 41.9272 9.956 41.3992 9.508V13.132C41.3992 13.172 41.4272 13.204 41.4832 13.228C41.5472 13.252 41.6072 13.264 41.6632 13.264V13.492H39.6352V13.264C39.6912 13.264 39.7472 13.252 39.8032 13.228C39.8672 13.204 39.8992 13.172 39.8992 13.132V4.84C39.8992 4.8 39.8672 4.768 39.8032 4.744C39.7472 4.72 39.6912 4.708 39.6352 4.708V4.48H41.3992V4.984C41.9432 4.552 42.5512 4.336 43.2232 4.336ZM43.0672 8.896C43.5392 8.896 43.9352 8.752 44.2552 8.464C44.5752 8.176 44.7352 7.784 44.7352 7.288C44.7352 6.808 44.5792 6.416 44.2672 6.112C43.9552 5.8 43.5552 5.644 43.0672 5.644C42.5632 5.644 42.1512 5.8 41.8312 6.112C41.5192 6.416 41.3632 6.812 41.3632 7.3C41.3632 7.572 41.4352 7.832 41.5792 8.08C41.7312 8.328 41.9352 8.528 42.1912 8.68C42.4552 8.824 42.7472 8.896 43.0672 8.896ZM49.9418 4.228C50.5578 4.228 51.0898 4.364 51.5378 4.636C51.9858 4.9 52.3258 5.26 52.5578 5.716C52.7898 6.172 52.9058 6.676 52.9058 7.228C52.9058 7.396 52.8938 7.564 52.8698 7.732H48.4778C48.5098 8.116 48.6778 8.416 48.9818 8.632C49.2858 8.848 49.6498 8.956 50.0738 8.956C50.3618 8.956 50.6018 8.916 50.7938 8.836C50.9938 8.756 51.1698 8.636 51.3218 8.476C51.3378 8.444 51.3458 8.424 51.3458 8.416C51.3458 8.384 51.3338 8.352 51.3098 8.32C51.2858 8.28 51.2618 8.252 51.2378 8.236L51.3818 8.056L52.7138 9.1L52.5818 9.28C52.4618 9.208 52.3778 9.2 52.3298 9.256C51.7698 9.928 51.0178 10.264 50.0738 10.264C49.4658 10.264 48.9298 10.132 48.4658 9.868C48.0018 9.596 47.6418 9.236 47.3857 8.788C47.1377 8.332 47.0138 7.828 47.0138 7.276C47.0138 6.692 47.1377 6.168 47.3857 5.704C47.6338 5.24 47.9778 4.88 48.4178 4.624C48.8658 4.36 49.3738 4.228 49.9418 4.228ZM51.4658 6.616C51.4338 6.288 51.2658 6.012 50.9618 5.788C50.6658 5.556 50.3298 5.44 49.9538 5.44C49.5778 5.44 49.2538 5.556 48.9818 5.788C48.7098 6.012 48.5458 6.288 48.4898 6.616H51.4658Z" fill="white"/>
</svg>
