<svg width="95" height="28" viewBox="0 0 95 28" fill="none" xmlns="http://www.w3.org/2000/svg">
<path d="M11.375 20.2539C11.375 19.4518 11.6471 18.7786 12.1914 18.2344C12.7643 17.6615 13.4518 17.375 14.2539 17.375H20.8281L19.7109 14.1953C19.2526 13.0208 18.7943 11.918 18.3359 10.8867C17.9062 9.82682 17.4049 8.86719 16.832 8.00781C16.3164 7.14844 15.7292 6.6901 15.0703 6.63281C14.3828 6.6901 13.7669 7.14844 13.2227 8.00781C12.6784 8.86719 12.1771 9.82682 11.7188 10.8867C11.2891 11.918 10.8451 13.0208 10.3867 14.1953L6.30469 25.3672C6.01823 25.9688 5.64583 26.4701 5.1875 26.8711C4.75781 27.2435 4.09896 27.4297 3.21094 27.4297C2.38021 27.4297 1.69271 27.1432 1.14844 26.5703C0.632812 25.9974 0.403646 25.3099 0.460938 24.5078C0.489583 24.1354 0.575521 23.7917 0.71875 23.4766L5.44531 11.2734C6.76302 8.0651 8.08073 5.47266 9.39844 3.49609C10.6875 1.54818 12.5781 0.559896 15.0703 0.53125C17.5339 0.559896 19.4102 1.54818 20.6992 3.49609C22.0169 5.41536 23.3346 8.00781 24.6523 11.2734L29.3789 23.4766C29.5221 23.7917 29.6081 24.1354 29.6367 24.5078C29.694 25.3099 29.4505 25.9974 28.9062 26.5703C28.3906 27.1432 27.7174 27.4297 26.8867 27.4297C25.9414 27.4297 25.2396 27.2435 24.7812 26.8711C24.3516 26.4701 23.9935 25.9688 23.707 25.3672L22.8906 23.1328H14.2539C13.4518 23.1328 12.7786 22.8464 12.2344 22.2734C11.6615 21.7292 11.375 21.056 11.375 20.2539ZM52.582 1.5625C54.5872 1.67708 56.2344 2.45052 57.5234 3.88281C58.8125 5.28646 59.7435 6.89062 60.3164 8.69531C60.8893 10.5 61.1758 12.3477 61.1758 14.2383C61.1758 16.1289 60.8893 17.9766 60.3164 19.7812C59.7721 21.5859 58.8411 23.2044 57.5234 24.6367C56.2344 26.0404 54.5872 26.7995 52.582 26.9141H36.7695C35.9961 26.8854 35.3372 26.6133 34.793 26.0977C34.2773 25.5534 34.0052 24.8945 33.9766 24.1211V13.4648C34.0052 12.6628 34.306 12.0039 34.8789 11.4883C35.4518 10.944 36.1393 10.6719 36.9414 10.6719C37.7148 10.7005 38.3737 10.987 38.918 11.5312C39.4622 12.0469 39.7487 12.6914 39.7773 13.4648V19.9961C39.7773 20.7695 40.1784 21.1562 40.9805 21.1562H51.1211C52.2096 21.099 53.112 20.6836 53.8281 19.9102C54.5443 19.1367 55.0599 18.263 55.375 17.2891C55.7188 16.2865 55.8906 15.2695 55.8906 14.2383C55.8906 13.207 55.7188 12.2044 55.375 11.2305C55.0599 10.2279 54.5443 9.33984 53.8281 8.56641C53.112 7.79297 52.2096 7.3776 51.1211 7.32031H36.7695C35.0508 7.17708 34.1198 6.24609 33.9766 4.52734C33.9766 3.72526 34.2344 3.03776 34.75 2.46484C35.2943 1.89193 35.9674 1.59115 36.7695 1.5625H52.582ZM93.6602 4.44141C93.6602 5.24349 93.3737 5.91667 92.8008 6.46094C92.2565 7.03385 91.5833 7.32031 90.7812 7.32031H73.5938C73.0495 7.34896 72.5911 7.47786 72.2188 7.70703C71.875 7.90755 71.6172 8.15104 71.4453 8.4375C71.2734 8.69531 71.1875 8.96745 71.1875 9.25391C71.1875 9.54036 71.2734 9.82682 71.4453 10.1133C71.6172 10.3711 71.875 10.6146 72.2188 10.8438C72.5911 11.0443 73.0495 11.1589 73.5938 11.1875H85.7969C87.8021 11.2448 89.4492 11.7174 90.7383 12.6055C92.056 13.4648 92.987 14.4674 93.5312 15.6133C94.1042 16.7305 94.3906 17.8763 94.3906 19.0508C94.3906 20.1966 94.1042 21.3424 93.5312 22.4883C92.9583 23.6055 92.0273 24.6081 90.7383 25.4961C89.4492 26.3555 87.8021 26.7852 85.7969 26.7852H85.5391C85.3672 26.8138 85.1953 26.8281 85.0234 26.8281H68.7812C67.9792 26.8281 67.2917 26.556 66.7188 26.0117C66.1745 25.4388 65.9023 24.7513 65.9023 23.9492C65.9023 23.1471 66.1888 22.474 66.7617 21.9297C67.306 21.3568 67.9792 21.0703 68.7812 21.0703H86.0547C86.599 21.099 87.043 20.9987 87.3867 20.7695C87.7591 20.5404 88.0312 20.2826 88.2031 19.9961C88.375 19.681 88.4609 19.3659 88.4609 19.0508C88.4609 18.8503 88.375 18.5781 88.2031 18.2344C88.0312 17.862 87.7591 17.5612 87.3867 17.332C87.043 17.1029 86.599 16.974 86.0547 16.9453H73.8516C71.8464 16.888 70.1849 16.4297 68.8672 15.5703C67.5781 14.7109 66.6471 13.737 66.0742 12.6484C65.5299 11.5312 65.2578 10.3997 65.2578 9.25391C65.2578 8.13672 65.5443 7.03385 66.1172 5.94531C66.6901 4.82812 67.6211 3.83984 68.9102 2.98047C70.1992 2.12109 71.8464 1.66276 73.8516 1.60547H74.1094C74.2812 1.57682 74.4531 1.5625 74.625 1.5625H90.7812C91.5833 1.5625 92.2565 1.84896 92.8008 2.42188C93.3737 2.96615 93.6602 3.63932 93.6602 4.44141Z" fill="white"/>
</svg>
